<svg xmlns="http://www.w3.org/2000/svg" width="512" height="512" viewBox="0 0 512 512">
<defs>
  <linearGradient id="warm" x1="0" y1="0" x2="1" y2="1">
    <stop offset="0" stop-color="#ffb454"/><stop offset="1" stop-color="#b79cff"/>
  </linearGradient>
  <linearGradient id="cool" x1="0" y1="0" x2="1" y2="1">
    <stop offset="0" stop-color="#7ee0c0"/><stop offset="1" stop-color="#b79cff"/>
  </linearGradient>
  <linearGradient id="tri" x1="0" y1="0" x2="1" y2="1">
    <stop offset="0" stop-color="#ffb454"/><stop offset="0.5" stop-color="#b79cff"/><stop offset="1" stop-color="#7ee0c0"/>
  </linearGradient>
  <radialGradient id="glowbg" cx="0.5" cy="0.35" r="0.9">
    <stop offset="0" stop-color="#1b1e26"/><stop offset="1" stop-color="#0e0f12"/>
  </radialGradient>
  
</defs>
<rect width="512" height="512" rx="0" fill="url(#glowbg)"/>

  <g fill="#3a4150">
    <rect x="120" y="352" width="44" height="44" rx="8"/>
    <rect x="176" y="380" width="32" height="32" rx="7"/>
    <rect x="150" y="300" width="30" height="30" rx="7"/>
    <rect x="214" y="330" width="22" height="22" rx="6"/>
  </g>
  <g fill="#b79cff" opacity="0.8">
    <rect x="208" y="262" width="26" height="26" rx="6"/>
    <rect x="252" y="292" width="18" height="18" rx="5"/>
  </g>
  <g fill="#ffb454">
    <rect x="256" y="216" width="22" height="22" rx="6"/>
    <rect x="292" y="248" width="14" height="14" rx="4"/>
  </g>
  <path d="M340 106 l20 54 54 20 -54 20 -20 54 -20 -54 -54 -20 54 -20 z" fill="url(#warm)"/>
  <path d="M414 220 l8 22 22 8 -22 8 -8 22 -8 -22 -22 -8 22 -8 z" fill="#7ee0c0"/>

</svg>