<svg xmlns="http://www.w3.org/2000/svg" width="512" height="512" viewBox="0 0 512 512">
  <rect width="512" height="512" rx="112" fill="#0e0f12"/>
  <g>
    <rect x="120" y="132" width="272" height="68" rx="16" fill="#16181d" stroke="#262a32" stroke-width="2"/>
    <rect x="120" y="132" width="8" height="68" rx="4" fill="#ffb454"/>
    <rect x="152" y="152" width="150" height="12" rx="6" fill="#e7e9ee"/>
    <rect x="152" y="174" width="200" height="9" rx="4.5" fill="#6b7280"/>

    <rect x="120" y="222" width="272" height="68" rx="16" fill="#16181d" stroke="#262a32" stroke-width="2"/>
    <rect x="120" y="222" width="8" height="68" rx="4" fill="#b79cff"/>
    <rect x="152" y="242" width="120" height="12" rx="6" fill="#e7e9ee"/>
    <rect x="152" y="264" width="200" height="9" rx="4.5" fill="#6b7280"/>

    <rect x="120" y="312" width="272" height="68" rx="16" fill="#16181d" stroke="#262a32" stroke-width="2"/>
    <rect x="120" y="312" width="8" height="68" rx="4" fill="#7ee0c0"/>
    <rect x="152" y="332" width="170" height="12" rx="6" fill="#e7e9ee"/>
    <rect x="152" y="354" width="200" height="9" rx="4.5" fill="#6b7280"/>
  </g>
</svg>
